<svg xmlns="http://www.w3.org/2000/svg" xmlns:xlink="http://www.w3.org/1999/xlink" width="688" height="255" xml:space="preserve"><g transform="translate(-136 -142)"><g><g><g><g><path d="M113.287 251.41C112.092 251.012 111.561 247.824 111.561 241.582 111.561 232.95 111.428 232.418 108.639 232.418 103.592 232.418 88.7174 228.832 80.616 225.778 76.2332 224.184 67.999 219.669 62.1553 215.684L51.3976 208.512 45.0227 214.489C40.9056 218.34 37.851 220.2 36.6557 219.669 33.0698 218.34 34.2651 214.622 40.3744 208.645L46.218 202.934 39.1791 193.106C31.0776 181.818 24.7027 166.544 22.445 152.865L20.8512 143.568 12.0858 143.17C3.58588 142.771 3.32026 142.638 2.92183 139.185L2.5234 135.467 11.5545 135.467 20.7184 135.467 22.9762 123.248C25.6324 109.17 32.4058 93.6314 40.9056 82.4753L46.3508 75.1707 40.5072 69.5927C34.2651 63.749 33.0698 60.2959 36.6557 58.835 37.9838 58.3038 40.9056 60.1631 45.0227 64.2803L51.3976 70.5224 55.9132 66.9365C58.4366 64.8115 60.5616 63.085 60.6944 63.085 60.96 62.9522 58.9678 54.3195 56.4444 43.8274 53.7882 33.3354 52.0617 23.9059 52.3273 22.9762 52.8586 21.6481 58.5694 21.2497 77.0301 21.2497L101.069 21.2497 100.67 15.5388 100.272 9.96078 92.0377 9.56235C84.7331 9.16392 83.6706 8.76549 83.6706 6.64052 83.6706 4.11712 84.8659 3.98431 114.881 3.98431 134.803 3.98431 146.092 4.51556 146.092 5.31242 146.092 6.10928 146.092 7.03895 146.092 7.70301 146.092 8.23425 142.373 8.8983 137.857 9.29673L129.49 9.96078 129.092 15.5388 128.693 21.2497 152.732 21.2497C171.724 21.2497 176.904 21.6481 177.435 23.109 177.833 24.0387 175.974 33.4682 173.45 43.9603 170.927 54.4523 168.935 63.085 169.068 63.085 169.201 63.2178 171.325 64.8115 173.849 66.8037L178.232 70.5224 184.739 64.4131C191.778 57.9054 192.708 57.5069 195.231 60.4288 196.692 62.2881 196.028 63.4834 190.583 69.0614 183.677 75.9676 183.677 75.4363 191.114 84.9987 199.614 96.1548 208.512 120.061 208.512 132.014 208.512 135.334 208.778 135.467 217.809 135.467 224.981 135.467 227.372 135.998 227.903 137.459 229.496 141.443 225.911 143.435 217.278 143.435L209.176 143.435 206.786 155.787C204.13 169.599 197.755 184.341 189.786 194.966L184.341 202.005 190.45 208.512C194.302 212.63 196.294 215.817 195.763 217.012 194.435 220.598 190.716 219.403 184.739 213.294L179.029 207.45 173.052 211.965C159.505 222.325 145.295 228.434 128.561 231.09L118.201 232.817 118.201 241.715C118.201 250.613 117.139 252.738 113.287 251.41ZM111.561 220.598C111.561 217.012 111.162 216.747 102.662 215.286 97.6157 214.489 92.1705 213.426 90.1783 213.028 87.5221 212.364 86.5924 213.028 85.2643 215.817 83.5378 219.669 83.2722 219.536 93.897 222.458 97.4829 223.387 102.795 224.317 105.983 224.317 111.295 224.45 111.561 224.317 111.561 220.598ZM134.803 222.723C141.31 220.997 143.17 218.872 141.045 215.419 140.115 213.958 137.99 213.958 129.092 215.419 118.467 217.012 118.201 217.145 118.201 220.731 118.201 224.184 118.6 224.45 123.248 224.45 125.904 224.45 131.084 223.653 134.803 222.723ZM168.271 206.255 173.318 202.005 170.529 199.083 167.607 196.294 161.365 200.942C157.912 203.598 153.396 206.52 151.271 207.45 147.154 209.309 146.623 211.169 148.881 215.286 150.209 217.809 150.341 217.809 156.716 214.223 160.435 212.231 165.615 208.645 168.271 206.255ZM78.8894 211.567C79.6863 209.309 79.0222 208.114 76.1004 206.387 74.1082 205.059 70.1239 202.27 67.3349 200.145L62.1553 196.161 59.4991 198.95C55.9132 202.403 56.9757 203.864 68.1318 211.169 76.4988 216.614 77.4285 216.614 78.8894 211.567ZM136.662 206.52C179.161 193.106 199.083 146.888 179.161 107.842 176.239 102.131 171.591 94.9595 168.802 91.772L163.622 85.9284 162.029 91.772C161.232 94.9595 160.037 99.0766 159.505 100.936L158.443 104.256 137.724 104.655 116.873 105.053 116.873 122.053C116.873 141.31 116.076 147.42 113.42 147.42 111.959 147.42 111.561 143.568 111.561 127.896 111.561 117.006 111.03 107.576 110.498 106.647 109.834 105.452 103.592 104.92 90.3111 104.655L71.0536 104.256 69.0614 96.2876C67.999 91.9048 67.0693 88.0533 66.8037 87.7877 65.7412 86.3268 55.5148 98.0141 52.0617 104.787 45.2884 117.67 43.2962 125.639 43.2962 139.451 43.429 149.412 44.0931 154.06 46.7493 161.63 59.7647 198.552 99.3422 218.208 136.662 206.52ZM54.9835 194.036C57.2413 191.513 57.2413 191.114 52.5929 185.271 50.0695 181.818 47.1477 177.302 46.218 175.177 44.7571 171.724 43.9603 171.193 40.64 171.857 38.515 172.388 36.3901 172.919 36.1244 173.318 34.7963 174.646 49.4055 196.559 51.6633 196.559 52.1945 196.559 53.7882 195.364 54.9835 194.036ZM183.013 191.911C185.005 189.388 188.192 184.872 189.786 181.95L192.708 176.638 188.989 175.177C185.802 173.982 185.005 174.115 183.278 176.904 182.216 178.497 179.427 182.349 177.169 185.271 173.318 190.45 173.185 190.849 175.177 193.638 177.966 197.356 178.497 197.356 183.013 191.911ZM197.888 162.958C198.684 160.169 199.88 154.724 200.411 150.74L201.473 143.435 197.224 143.435C193.106 143.435 192.974 143.568 191.513 151.802 190.583 156.318 189.653 161.63 189.122 163.49 188.591 166.146 188.989 167.076 191.513 168.271 195.231 169.997 195.763 169.466 197.888 162.958ZM38.3822 164.818C40.5072 163.622 40.5072 162.958 38.6478 153.529 36.6557 143.834 36.3901 143.435 32.937 143.435 29.6167 143.435 29.2183 143.967 29.2183 147.818 29.2183 151.537 30.6792 158.576 32.5386 164.419 33.2026 166.279 35.1948 166.411 38.3822 164.818ZM38.6478 124.975 40.5072 114.35 37.4525 113.022C35.726 112.225 34.1323 111.561 33.8667 111.561 32.6714 111.561 29.2183 125.639 29.2183 130.42 29.2183 135.068 29.4839 135.467 32.937 135.467 36.5229 135.467 36.7885 135.068 38.6478 124.975ZM200.809 129.49C200.544 126.568 199.481 120.725 198.286 116.475 196.294 109.17 196.028 108.772 192.708 109.569 190.849 110.1 189.122 110.631 188.856 110.764 188.724 111.03 189.521 116.608 190.849 123.381L193.239 135.599 197.224 135.201C200.942 134.803 201.208 134.537 200.809 129.49ZM51.3976 94.8267 56.8429 86.5924 53.921 83.8034 50.9992 81.0144 46.218 87.3893C43.5618 90.8424 40.2416 96.1548 38.6478 99.2094L35.8588 104.655 39.5775 105.983C42.3665 107.045 43.429 106.78 44.4915 105.186 45.2884 104.123 48.343 99.475 51.3976 94.8267ZM188.989 95.2251C187.13 92.1705 184.075 87.6549 182.216 85.2643L178.896 80.8816 175.841 83.8034 172.786 86.7252 176.505 91.5064C178.63 94.1626 181.286 98.2797 182.482 100.67 184.607 104.92 184.739 104.92 188.591 102.928L192.575 100.936 188.989 95.2251ZM96.9516 95.3579C96.9516 93.6314 96.5532 89.1158 96.1548 85.3971L95.2251 78.3582 86.4596 78.3582C81.6784 78.3582 76.2332 78.7566 74.6395 79.2878 71.1864 80.0847 71.1864 81.28 74.5067 93.2329L75.8348 98.2797 86.3268 98.2797C96.4204 98.2797 96.9516 98.1469 96.9516 95.3579ZM126.834 92.0377C127.365 88.4518 127.764 84.2018 127.896 82.3425L128.162 79.0222 114.881 79.0222C103.858 79.0222 101.6 79.4207 101.866 81.0144 101.998 82.0769 102.397 86.4596 102.928 90.7095L103.725 98.2797 114.881 98.2797 126.037 98.2797 126.834 92.0377ZM155.255 93.2329C158.576 81.28 158.576 80.0847 155.123 79.2878 150.873 78.0926 135.732 78.0926 135.068 79.4207 134.67 79.9519 134.006 84.3346 133.475 89.3814L132.545 98.2797 143.17 98.2797 153.927 98.2797 155.255 93.2329ZM64.2803 78.6238C64.1475 77.6941 64.0146 75.8348 64.0146 74.3739 63.749 71.1864 62.5537 71.0536 59.1007 73.577 56.5773 75.4363 56.5773 75.5692 58.9678 78.2254 61.6241 81.1472 64.5459 81.28 64.2803 78.6238ZM170.794 78.2254C173.185 75.5692 173.185 75.4363 170.661 73.577 167.076 70.9208 166.411 71.1864 165.615 75.3035 164.419 81.5456 166.677 82.7409 170.794 78.2254ZM93.6314 64.1475C93.1001 59.1007 92.4361 54.7179 92.0377 54.1867 91.772 53.5226 85.5299 53.1242 78.0926 53.1242 64.9443 53.1242 64.8115 53.1242 65.6084 56.1788 66.1396 57.7725 67.2021 62.2881 67.999 66.1396L69.4599 73.0458 81.9441 73.0458 94.561 73.0458 93.6314 64.1475ZM129.49 67.4677C129.889 64.2803 130.42 60.0303 130.553 57.7725L130.818 53.7882 114.881 53.7882 98.9438 53.7882 99.2094 57.1085C99.3422 58.9678 99.7407 63.2178 100.272 66.8037L101.069 73.0458 114.881 73.0458 128.693 73.0458 129.49 67.4677ZM161.763 66.1396C162.56 62.2881 163.622 57.7725 164.154 56.1788 164.951 53.1242 164.818 53.1242 151.67 53.1242 136.529 53.1242 137.592 52.3273 136.131 65.4756L135.334 73.0458 147.818 73.0458 160.302 73.0458 161.763 66.1396ZM90.8424 38.9135C90.4439 34.6635 89.9127 30.4136 89.5143 29.6167 89.2486 28.2886 84.8659 27.8902 73.8426 27.8902L58.7022 27.8902 60.5616 35.5932C61.6241 39.7103 62.8193 43.9603 63.085 44.8899 63.4834 45.9524 67.6005 46.4837 77.6941 46.4837L91.6392 46.4837 90.8424 38.9135ZM132.014 44.8899C132.412 43.9603 132.943 39.7103 133.342 35.5932L134.139 27.8902 114.881 27.8902 95.6235 27.8902 96.4204 35.5932C96.8188 39.7103 97.3501 43.9603 97.7485 44.8899 98.4126 47.1477 131.35 47.1477 132.014 44.8899ZM168.802 37.1869 170.927 27.8902 155.787 27.8902C138.92 27.8902 140.115 27.2261 138.92 38.9135L138.123 46.4837 152.334 46.4837 166.677 46.4837 168.802 37.1869ZM123.514 15.2732 123.514 9.29673 114.881 9.29673 106.248 9.29673 106.248 15.2732 106.248 21.2497 114.881 21.2497 123.514 21.2497 123.514 15.2732Z" fill="#FFFFFF" fill-rule="nonzero" fill-opacity="1" transform="matrix(1.00394 0 0 -1 136 396.834)"></path><path d="M115.279 182.482C111.295 170.794 110.631 167.74 111.826 164.552 114.483 156.982 116.342 160.169 118.733 176.372 119.928 184.872 121.256 192.974 121.654 194.302 122.053 195.497 121.92 196.559 121.256 196.559 120.725 196.559 118.068 190.185 115.279 182.482Z" fill="#FFFFFF" fill-rule="nonzero" fill-opacity="1" transform="matrix(1.00394 0 0 -1 136 396.834)"></path><path d="M111.561 156.052C109.569 153.662 110.764 150.076 113.287 150.076 114.35 150.076 115.944 151.005 116.873 152.068 118.201 153.662 118.201 154.459 116.873 156.052 114.748 158.576 113.686 158.576 111.561 156.052Z" fill="#FFFFFF" fill-rule="nonzero" fill-opacity="1" transform="matrix(1.00394 0 0 -1 136 396.834)"></path><path d="M90.3111 147.154C81.1472 144.232 73.4442 141.576 73.1786 141.31 71.452 139.717 75.3035 139.717 87.6549 141.709 98.5454 143.302 102.264 144.365 104.787 146.756 110.631 152.466 107.178 152.466 90.3111 147.154Z" fill="#FFFFFF" fill-rule="nonzero" fill-opacity="1" transform="matrix(1.00394 0 0 -1 136 396.834)"></path><path d="M120.326 151.537C119.529 150.341 128.428 144.896 144.498 136.928 149.013 134.67 152.732 133.209 152.732 133.873 152.732 134.537 147.287 138.92 140.646 143.834 128.959 152.334 122.318 154.857 120.326 151.537Z" fill="#FFFFFF" fill-rule="nonzero" fill-opacity="1" transform="matrix(1.00394 0 0 -1 136 396.834)"></path><path d="M583.038 227.106C579.718 223.786 579.585 217.544 582.772 214.755 586.491 211.301 595.655 211.833 598.178 215.419 601.1 219.536 600.835 223.918 597.381 227.106 593.663 230.559 586.491 230.559 583.038 227.106Z" fill="#FFFFFF" fill-rule="nonzero" fill-opacity="1" transform="matrix(1.00394 0 0 -1 136 396.834)"></path><path d="M367.619 224.848 359.916 224.317 359.916 211.036 359.916 197.622 355.002 200.809C348.229 204.927 336.409 204.927 328.44 200.809 309.98 191.247 308.519 162.427 325.784 150.474 330.167 147.42 332.823 146.756 340.526 146.357 348.893 145.959 350.487 146.224 355.002 149.279L359.916 152.599 359.916 149.412C359.916 146.224 360.315 146.092 367.885 146.092L375.854 146.092 375.854 185.935C375.854 207.848 375.721 225.645 375.588 225.512 375.322 225.379 371.736 225.114 367.619 224.848ZM352.745 188.724C360.846 183.81 362.041 170.396 355.135 163.091 352.081 160.037 350.354 159.373 344.909 159.373 339.596 159.373 337.87 160.037 334.55 163.224 331.229 166.544 330.698 168.138 330.698 174.38 330.698 188.192 341.854 195.364 352.745 188.724Z" fill="#FFFFFF" fill-rule="nonzero" fill-opacity="1" transform="matrix(1.00394 0 0 -1 136 396.834)"></path><path d="M653.427 211.567 653.427 198.02 648.513 200.942C641.607 204.927 629.654 204.927 621.819 200.809 614.912 197.091 608.936 188.325 607.608 179.825 605.483 165.747 614.116 150.873 626.068 147.42 634.568 145.029 645.99 146.224 649.842 149.81 653.826 153.529 654.756 153.529 654.756 149.412 654.756 146.224 655.154 146.092 662.06 146.092L669.365 146.092 669.365 185.138 669.365 224.184 661.396 224.715 653.427 225.114 653.427 211.567ZM645.459 189.255C655.42 184.075 656.084 168.404 646.787 161.099 644.264 159.107 634.303 158.841 630.717 160.701 624.076 164.287 621.951 178.763 626.998 185.138 631.779 191.247 638.685 192.841 645.459 189.255Z" fill="#FFFFFF" fill-rule="nonzero" fill-opacity="1" transform="matrix(1.00394 0 0 -1 136 396.834)"></path><path d="M485.422 220.598C474.532 217.809 462.844 208.114 458.595 198.02 457.399 195.231 456.47 189.255 456.47 183.942 456.337 157.115 478.782 140.646 507.203 146.623 512.516 147.685 518.758 149.81 521.148 151.138L525.265 153.529 525.664 169.068 526.062 184.607 518.625 184.607 511.32 184.607 511.32 173.45 511.32 162.294 507.203 160.833C497.375 157.38 484.094 160.701 478.383 168.005 468.688 180.357 473.071 199.614 487.016 205.325 495.781 209.044 508.531 207.051 515.437 201.075 517.164 199.481 518.094 199.88 522.476 204.395L527.39 209.442 522.344 213.692C513.977 220.731 498.039 223.653 485.422 220.598Z" fill="#FFFFFF" fill-rule="nonzero" fill-opacity="1" transform="matrix(1.00394 0 0 -1 136 396.834)"></path><path d="M251.012 183.278 251.012 146.092 279.566 146.092 308.12 146.092 308.12 152.732 308.12 159.373 287.535 159.373 266.949 159.373 266.949 168.669 266.949 177.966 284.214 177.966 301.48 177.966 301.48 184.607 301.48 191.247 284.214 191.247 266.949 191.247 266.949 199.216 266.949 207.184 286.871 207.184 306.792 207.184 306.792 213.825 306.792 220.465 278.902 220.465 251.012 220.465 251.012 183.278Z" fill="#FFFFFF" fill-rule="nonzero" fill-opacity="1" transform="matrix(1.00394 0 0 -1 136 396.834)"></path><path d="M565.374 202.669C562.585 201.606 559.265 199.88 557.937 198.684 554.749 195.763 553.82 196.028 553.82 199.88 553.82 203.067 553.421 203.2 546.515 203.2L539.21 203.2 539.21 174.646 539.21 146.092 547.179 146.092 555.148 146.092 555.148 161.365C555.148 179.825 556.874 185.138 563.648 187.927 566.304 188.989 569.624 189.919 571.085 189.919 573.476 189.919 573.741 190.716 573.741 197.224 573.741 205.325 573.476 205.458 565.374 202.669Z" fill="#FFFFFF" fill-rule="nonzero" fill-opacity="1" transform="matrix(1.00394 0 0 -1 136 396.834)"></path><path d="M389.135 181.685C389.666 163.224 390.197 159.373 392.455 155.654 398.166 146.224 415.83 142.904 425.525 149.412L430.306 152.599 430.306 149.412C430.306 146.224 430.704 146.092 438.275 146.092L446.243 146.092 446.243 174.646 446.243 203.2 438.407 203.2 430.572 203.2 430.04 185.138 429.642 167.076 425.259 163.224C419.681 158.177 413.041 158.044 408.392 162.693 405.205 165.747 405.072 166.544 405.072 184.607L405.072 203.2 396.838 203.2 388.471 203.2 389.135 181.685Z" fill="#FFFFFF" fill-rule="nonzero" fill-opacity="1" transform="matrix(1.00394 0 0 -1 136 396.834)"></path><path d="M581.71 174.646 581.71 146.092 589.678 146.092 597.647 146.092 597.647 174.646 597.647 203.2 589.678 203.2 581.71 203.2 581.71 174.646Z" fill="#FFFFFF" fill-rule="nonzero" fill-opacity="1" transform="matrix(1.00394 0 0 -1 136 396.834)"></path><path d="M249.684 95.6235 249.684 73.0458 262.965 73.0458C273.855 73.0458 277.308 73.577 281.691 75.702 294.441 82.3425 296.964 100.405 286.339 111.03 281.027 116.342 274.519 118.201 260.707 118.201L249.684 118.201 249.684 95.6235ZM278.504 111.694C285.277 108.506 288.199 103.327 288.199 94.2954 288.199 88.5846 287.535 86.9909 283.949 82.8737 279.168 77.6941 273.191 75.8348 262.035 75.702L254.996 75.702 254.996 94.9595 254.996 114.217 264.027 114.217C269.871 114.217 274.785 113.287 278.504 111.694Z" fill="#FFFFFF" fill-rule="nonzero" fill-opacity="1" transform="matrix(1.00394 0 0 -1 136 396.834)"></path><path d="M301.48 95.7563 301.48 73.1786 317.417 72.7801C329.503 72.5145 333.354 72.7801 333.354 74.1082 333.354 75.3035 329.636 75.702 319.409 75.702L305.331 75.702 305.73 84.7331 306.128 93.6314 317.815 94.0298C333.089 94.561 332.823 96.9516 317.417 96.9516L305.464 96.9516 305.464 105.584 305.464 114.217 318.745 114.217C329.636 114.217 332.026 114.615 332.026 116.209 332.026 117.803 329.503 118.201 316.753 118.201L301.48 118.201 301.48 95.7563Z" fill="#FFFFFF" fill-rule="nonzero" fill-opacity="1" transform="matrix(1.00394 0 0 -1 136 396.834)"></path><path d="M345.706 116.209C340.792 114.084 338.667 110.631 338.667 105.053 338.667 100.006 343.315 96.2876 353.143 93.4986 363.502 90.5767 366.557 88.319 366.557 83.8034 366.557 78.8894 363.901 76.8973 356.729 76.1004 352.745 75.5692 349.159 76.2332 344.909 78.0926 339.729 80.3503 338.799 80.4831 338.135 78.8894 337.604 77.5613 338.932 76.2332 342.385 74.7723 354.471 69.7255 365.627 71.8505 369.612 79.9519 371.736 84.2018 371.869 85.3971 370.276 88.5846 368.549 92.1705 366.158 93.3658 350.221 98.9438 342.385 101.733 340.659 105.983 345.44 111.03 347.831 113.553 349.69 114.217 354.87 114.217 358.455 114.217 362.705 113.553 364.166 112.756 366.026 111.694 367.221 111.694 368.283 112.756 369.213 113.686 368.283 114.748 364.83 116.209 358.854 118.6 351.284 118.733 345.706 116.209Z" fill="#FFFFFF" fill-rule="nonzero" fill-opacity="1" transform="matrix(1.00394 0 0 -1 136 396.834)"></path><path d="M378.51 95.6235C378.51 73.9754 378.643 73.0458 381.166 73.0458 383.689 73.0458 383.822 73.9754 383.822 95.6235 383.822 117.272 383.689 118.201 381.166 118.201 378.643 118.201 378.51 117.272 378.51 95.6235Z" fill="#FFFFFF" fill-rule="nonzero" fill-opacity="1" transform="matrix(1.00394 0 0 -1 136 396.834)"></path><path d="M403.611 115.147C389.799 107.842 387.541 88.1861 399.494 78.0926 407.595 71.3192 418.22 70.2567 427.783 75.1707 431.368 77.0301 431.634 77.5613 431.634 85.6627 431.634 92.4361 431.236 94.2954 429.642 94.2954 428.048 94.2954 427.65 92.5689 427.65 86.3268L427.65 78.491 422.47 76.8973C404.939 71.7177 389.267 89.6471 398.431 104.655 404.009 113.819 416.892 117.139 425.923 111.561 428.447 110.1 430.572 109.569 430.97 110.233 432.165 112.225 430.439 114.35 425.525 116.342 418.884 119.131 410.384 118.6 403.611 115.147Z" fill="#FFFFFF" fill-rule="nonzero" fill-opacity="1" transform="matrix(1.00394 0 0 -1 136 396.834)"></path><path d="M443.587 95.7563C443.587 77.2957 443.985 73.1786 445.579 72.5145 447.173 71.9833 447.571 74.6395 447.837 90.4439L448.235 109.17 462.579 91.108C470.547 81.1472 477.852 73.0458 478.915 73.0458 480.508 73.0458 480.774 77.0301 480.774 95.6235 480.774 114.615 480.508 118.201 478.782 118.201 477.188 118.201 476.79 114.881 476.524 99.6078L476.125 81.1472 461.516 99.6078C453.548 109.701 446.11 118.068 445.313 118.201 443.985 118.201 443.587 112.889 443.587 95.7563Z" fill="#FFFFFF" fill-rule="nonzero" fill-opacity="1" transform="matrix(1.00394 0 0 -1 136 396.834)"></path><path d="M492.727 95.6235 492.727 73.0458 508.664 73.0458C518.359 73.0458 524.601 73.577 524.601 74.3739 524.601 75.1707 519.289 75.702 511.32 75.702L498.039 75.702 498.039 84.9987 498.039 94.2954 509.992 94.2954C517.031 94.2954 521.945 94.8267 521.945 95.6235 521.945 96.4204 517.031 96.9516 509.992 96.9516L498.039 96.9516 498.039 105.584 498.039 114.217 511.32 114.217C522.211 114.217 524.601 114.615 524.601 116.209 524.601 117.936 521.945 118.201 508.664 118.201L492.727 118.201 492.727 95.6235Z" fill="#FFFFFF" fill-rule="nonzero" fill-opacity="1" transform="matrix(1.00394 0 0 -1 136 396.834)"></path><path d="M533.898 95.4907 533.898 72.3817 548.109 73.0458C564.71 73.8426 569.093 75.8348 573.741 83.9362 576.132 88.1861 576.53 90.7095 576.132 96.8188 575.069 111.694 567.499 117.006 546.913 117.936L533.898 118.467 533.898 95.4907ZM560.859 112.358C568.03 109.303 571.483 104.522 572.015 96.686 573.077 83.1393 565.374 76.6316 548.507 76.4988L538.546 76.366 538.148 95.3579 537.75 114.217 547.179 114.217C552.359 114.217 558.468 113.42 560.859 112.358Z" fill="#FFFFFF" fill-rule="nonzero" fill-opacity="1" transform="matrix(1.00394 0 0 -1 136 396.834)"></path><path d="M602.428 96.022C594.858 79.5535 592.733 73.577 593.928 72.7801 595.124 72.1161 596.717 73.8426 598.975 78.3582L602.163 84.9987 615.045 84.9987 627.928 84.9987 630.451 79.0222C631.912 75.1707 633.639 73.0458 635.1 73.0458 637.225 73.0458 637.225 73.7098 634.303 80.0847 618.764 114.881 617.037 118.201 614.912 118.201 613.319 118.201 609.733 111.959 602.428 96.022ZM620.225 101.467C623.147 95.2251 625.537 89.5143 625.537 88.8502 625.537 88.1861 620.756 87.6549 614.912 87.6549 608.803 87.6549 604.288 88.1861 604.288 88.983 604.288 90.4439 613.983 112.889 614.647 112.889 614.912 112.889 617.436 107.709 620.225 101.467Z" fill="#FFFFFF" fill-rule="nonzero" fill-opacity="1" transform="matrix(1.00394 0 0 -1 136 396.834)"></path><path d="M633.506 116.209C633.506 114.615 635.232 114.217 641.474 114.217L649.443 114.217 649.443 93.6314C649.443 76.2332 649.709 73.0458 651.435 73.0458 653.162 73.0458 653.427 76.2332 653.427 93.6314L653.427 114.217 661.396 114.217C667.638 114.217 669.365 114.615 669.365 116.209 669.365 117.936 666.443 118.201 651.435 118.201 636.428 118.201 633.506 117.936 633.506 116.209Z" fill="#FFFFFF" fill-rule="nonzero" fill-opacity="1" transform="matrix(1.00394 0 0 -1 136 396.834)"></path><path d="M243.043 47.1477C243.043 45.554 244.77 45.1556 251.012 45.1556L258.98 45.1556 258.98 24.5699C258.98 7.17176 259.246 3.98431 260.973 3.98431 262.699 3.98431 262.965 7.17176 262.965 24.5699L262.965 45.1556 271.597 45.1556C278.371 45.1556 280.23 45.554 280.23 47.1477 280.23 48.8742 277.308 49.1399 261.637 49.1399 245.965 49.1399 243.043 48.8742 243.043 47.1477Z" fill="#FFFFFF" fill-rule="nonzero" fill-opacity="1" transform="matrix(1.00394 0 0 -1 136 396.834)"></path><path d="M282.886 34.9291C282.886 26.9605 283.55 18.3278 284.214 15.6716 288.066 1.85935 309.05-1.46092 317.019 10.492 319.808 14.6092 320.073 16.4685 320.073 32.0073 320.073 46.3508 319.808 49.1399 318.081 49.1399 316.355 49.1399 316.089 46.4837 316.089 33.2026 316.089 13.9451 314.761 10.2264 306.925 7.83582 300.948 6.10928 296.566 6.90614 292.05 10.492 288.996 12.8826 288.863 13.9451 288.464 31.0776 288.066 47.8118 287.8 49.1399 285.41 49.1399 283.019 49.1399 282.886 48.0774 282.886 34.9291Z" fill="#FFFFFF" fill-rule="nonzero" fill-opacity="1" transform="matrix(1.00394 0 0 -1 136 396.834)"></path><path d="M346.635 26.5621C346.635 7.43739 346.901 3.98431 348.627 3.98431 350.354 3.98431 350.62 6.90614 350.62 22.3122L350.62 40.5072 359.651 25.3668C364.565 16.9997 369.213 9.96078 369.877 9.69516 370.674 9.56235 375.057 16.0701 379.838 24.3043L388.471 39.1791 388.869 21.6481C389.135 5.0468 389.4 3.98431 391.791 3.98431 394.314 3.98431 394.447 5.0468 394.447 26.6949 394.447 54.9835 393.783 55.2491 380.502 32.2729 375.455 23.3746 370.807 16.0701 370.276 15.9373 369.877 15.9373 365.096 23.3746 359.651 32.5386 354.338 41.7025 349.159 49.1399 348.362 49.1399 347.034 49.1399 346.635 43.6946 346.635 26.5621Z" fill="#FFFFFF" fill-rule="nonzero" fill-opacity="1" transform="matrix(1.00394 0 0 -1 136 396.834)"></path><path d="M405.072 35.5932C405.205 18.3278 406.533 12.2186 411.447 7.83582 419.548 0.664052 433.493 1.99216 439.204 10.492 441.993 14.6092 442.259 16.4685 442.259 32.0073 442.259 46.3508 441.993 49.1399 440.267 49.1399 438.54 49.1399 438.275 46.4837 438.275 33.2026 438.275 13.9451 436.946 10.2264 429.111 7.83582 422.736 5.97647 417.822 7.03895 413.572 11.2889 410.517 14.3435 410.384 15.2732 410.384 31.8745 410.384 48.2102 410.251 49.1399 407.728 49.1399 405.205 49.1399 405.072 48.2102 405.072 35.5932Z" fill="#FFFFFF" fill-rule="nonzero" fill-opacity="1" transform="matrix(1.00394 0 0 -1 136 396.834)"></path><path d="M454.212 26.5621C454.212 4.91399 454.345 3.98431 456.868 3.98431 459.259 3.98431 459.524 5.0468 459.79 21.9137L460.188 39.8431 474.133 22.0465C482.235 11.6873 489.008 4.11712 490.469 4.11712 492.594 3.98431 492.727 5.97647 492.727 26.5621 492.727 45.554 492.461 49.1399 490.735 49.1399 489.141 49.1399 488.742 45.8196 488.477 30.4136L488.078 11.5545 473.204 30.4136C464.969 40.64 457.266 49.1399 456.204 49.1399 454.477 49.1399 454.212 45.8196 454.212 26.5621Z" fill="#FFFFFF" fill-rule="nonzero" fill-opacity="1" transform="matrix(1.00394 0 0 -1 136 396.834)"></path><path d="M504.68 26.5621C504.68 7.43739 504.945 3.98431 506.672 3.98431 508.398 3.98431 508.664 7.43739 508.664 26.5621 508.664 45.6868 508.398 49.1399 506.672 49.1399 504.945 49.1399 504.68 45.6868 504.68 26.5621Z" fill="#FFFFFF" fill-rule="nonzero" fill-opacity="1" transform="matrix(1.00394 0 0 -1 136 396.834)"></path><path d="M530.578 47.1477C521.547 42.2337 517.961 36.1244 517.961 25.7652 517.961 14.3435 523.539 7.17176 534.961 4.11712 541.601 2.25778 547.843 3.18745 553.82 6.90614 560.195 10.6248 557.007 12.617 550.101 9.16392 532.836 0.531242 515.172 18.7263 524.336 35.726 528.984 44.3587 542.664 47.9446 551.296 42.8978 556.741 39.7103 559.398 42.4993 554.218 45.9524 549.038 49.2727 535.89 49.9367 530.578 47.1477Z" fill="#FFFFFF" fill-rule="nonzero" fill-opacity="1" transform="matrix(1.00394 0 0 -1 136 396.834)"></path><path d="M565.773 26.5621C565.773 7.43739 566.038 3.98431 567.765 3.98431 569.358 3.98431 569.757 6.10928 569.757 14.6092L569.757 25.234 584.366 25.234 598.975 25.234 598.975 14.6092C598.975 6.10928 599.374 3.98431 600.967 3.98431 602.694 3.98431 602.959 7.43739 602.959 26.5621 602.959 45.6868 602.694 49.1399 600.967 49.1399 599.374 49.1399 598.975 47.0149 598.975 38.515L598.975 27.8902 584.366 27.8902 569.757 27.8902 569.757 38.515C569.757 47.0149 569.358 49.1399 567.765 49.1399 566.038 49.1399 565.773 45.6868 565.773 26.5621Z" fill="#FFFFFF" fill-rule="nonzero" fill-opacity="1" transform="matrix(1.00394 0 0 -1 136 396.834)"></path></g></g></g></g></g></svg>